<?xml version="1.0" encoding="UTF-8"?>
<!DOCTYPE svg PUBLIC "-//W3C//DTD SVG 1.1//EN" "http://www.w3.org/Graphics/SVG/1.1/DTD/svg11.dtd">
<svg xmlns="http://www.w3.org/2000/svg" version="1.1" width="975px" height="904px" style="shape-rendering:geometricPrecision; text-rendering:geometricPrecision; image-rendering:optimizeQuality; fill-rule:evenodd; clip-rule:evenodd" xmlns:xlink="http://www.w3.org/1999/xlink">
<g><path style="opacity:0.118" fill="#0047b5" d="M 207.5,-0.5 C 272.833,-0.5 338.167,-0.5 403.5,-0.5C 405.584,3.33592 407.917,7.00259 410.5,10.5C 344.166,10.3333 277.832,10.5 211.5,11C 212.774,11.9772 212.774,12.8106 211.5,13.5C 209.97,8.90739 208.637,4.24073 207.5,-0.5 Z"/></g>
<g><path style="opacity:0.118" fill="#0047b5" d="M 405.5,-0.5 C 595.167,-0.5 784.833,-0.5 974.5,-0.5C 974.5,3.16667 974.5,6.83333 974.5,10.5C 787.167,10.5 599.833,10.5 412.5,10.5C 409.806,7.12366 407.473,3.45699 405.5,-0.5 Z"/></g>
<g><path style="opacity:0.188" fill="#003991" d="M 403.5,-0.5 C 404.167,-0.5 404.833,-0.5 405.5,-0.5C 407.473,3.45699 409.806,7.12366 412.5,10.5C 414.587,13.3409 416.087,16.3409 417,19.5C 414.615,16.6215 412.448,13.6215 410.5,10.5C 407.917,7.00259 405.584,3.33592 403.5,-0.5 Z"/></g>
<g><path style="opacity:0.118" fill="#004aba" d="M 410.5,10.5 C 412.448,13.6215 414.615,16.6215 417,19.5C 416.087,16.3409 414.587,13.3409 412.5,10.5C 599.833,10.5 787.167,10.5 974.5,10.5C 974.5,29.5 974.5,48.5 974.5,67.5C 803.666,67.167 632.999,67.5003 462.5,68.5C 458.441,64.4349 454.107,60.7683 449.5,57.5C 452.449,60.7877 455.449,64.121 458.5,67.5C 383.833,67.5 309.167,67.5 234.5,67.5C 224.668,50.4942 217.002,32.4942 211.5,13.5C 212.774,12.8106 212.774,11.9772 211.5,11C 277.832,10.5 344.166,10.3333 410.5,10.5 Z"/></g>
<g><path style="opacity:0.182" fill="#003b94" d="M 449.5,57.5 C 439.477,48.9741 430.643,39.3074 423,28.5C 421.711,26.9452 421.044,25.2785 421,23.5C 430.335,34.999 439.835,46.3323 449.5,57.5 Z"/></g>
<g><path style="opacity:0.145" fill="#003c97" d="M 449.5,57.5 C 454.107,60.7683 458.441,64.4349 462.5,68.5C 463.167,69.5 463.833,70.5 464.5,71.5C 462.246,70.5849 460.246,69.2516 458.5,67.5C 455.449,64.121 452.449,60.7877 449.5,57.5 Z"/></g>
<g><path style="opacity:0.051" fill="#0157db" d="M -0.5,-0.5 C 0.166667,-0.5 0.833333,-0.5 1.5,-0.5C 22.1725,24.3431 46.8391,44.1764 75.5,59C 132.826,87.3318 193.493,102.832 257.5,105.5C 258.167,105.5 258.5,105.833 258.5,106.5C 258.5,106.833 258.5,107.167 258.5,107.5C 192.577,104.936 130.244,88.7698 71.5,59C 44.1153,44.12 20.1153,24.9533 -0.5,1.5C -0.5,0.833333 -0.5,0.166667 -0.5,-0.5 Z"/></g>
<g><path style="opacity:0.118" fill="#004cc0" d="M 234.5,67.5 C 309.167,67.5 383.833,67.5 458.5,67.5C 460.246,69.2516 462.246,70.5849 464.5,71.5C 463.833,70.5 463.167,69.5 462.5,68.5C 632.999,67.5003 803.666,67.167 974.5,67.5C 974.5,88.8333 974.5,110.167 974.5,131.5C 943.498,131.667 912.498,131.5 881.5,131C 877.14,128.82 872.807,126.653 868.5,124.5C 815.797,100.891 760.464,87.3906 702.5,84C 634.428,80.9081 566.595,83.7415 499,92.5C 497.319,92.6083 496.152,93.2749 495.5,94.5C 493.302,92.9019 490.969,91.5686 488.5,90.5C 489.167,91.5 489.833,92.5 490.5,93.5C 445.914,98.4775 401.247,102.644 356.5,106C 323.835,107.593 291.169,107.76 258.5,106.5C 258.5,105.833 258.167,105.5 257.5,105.5C 248.817,93.4706 241.15,80.8039 234.5,67.5 Z"/></g>
<g><path style="opacity:0.178" fill="#003d99" d="M 464.5,71.5 C 468.621,74.4088 472.621,77.5755 476.5,81C 471.725,79.0768 467.725,75.9101 464.5,71.5 Z"/></g>
<g><path style="opacity:0.118" fill="#004cbf" d="M 866.5,125.5 C 870.075,127.287 873.741,129.121 877.5,131C 775.666,131.167 673.999,131.667 572.5,132.5C 569.301,131.101 565.968,130.101 562.5,129.5C 563.167,130.167 563.833,130.833 564.5,131.5C 469.5,131.5 374.5,131.5 279.5,131.5C 272.064,124.732 265.731,117.065 260.5,108.5C 338.143,109.907 415.476,105.24 492.5,94.5C 499.039,99.2706 506.039,103.271 513.5,106.5C 507.833,102.5 502.167,98.5 496.5,94.5C 547.813,88.258 599.313,84.5913 651,83.5C 713.869,82.5623 775.035,92.0623 834.5,112C 845.298,116.233 855.964,120.733 866.5,125.5 Z"/></g>
<g><path style="opacity:0.174" fill="#003c98" d="M 488.5,90.5 C 485.37,89.4278 482.704,87.5945 480.5,85C 481.167,84.3333 481.833,84.3333 482.5,85C 484.763,86.617 486.763,88.4503 488.5,90.5 Z"/></g>
<g><path style="opacity:0.191" fill="#0051cc" d="M 868.5,124.5 C 868.158,125.338 867.492,125.672 866.5,125.5C 855.964,120.733 845.298,116.233 834.5,112C 775.035,92.0623 713.869,82.5623 651,83.5C 599.313,84.5913 547.813,88.258 496.5,94.5C 496.167,94.5 495.833,94.5 495.5,94.5C 496.152,93.2749 497.319,92.6083 499,92.5C 566.595,83.7415 634.428,80.9081 702.5,84C 760.464,87.3906 815.797,100.891 868.5,124.5 Z"/></g>
<g><path style="opacity:0.986" fill="#3d89fe" d="M 828.5,89.5 C 837.157,87.679 841.323,91.0124 841,99.5C 836.144,105.76 830.81,106.093 825,100.5C 823.663,95.9159 824.829,92.2493 828.5,89.5 Z"/></g>
<g><path style="opacity:0.118" fill="#004ec3" d="M 830.5,92.5 C 837.004,92.1377 838.671,94.6377 835.5,100C 828.369,101.211 826.702,98.7112 830.5,92.5 Z"/></g>
<g><path style="opacity:0.163" fill="#0050ca" d="M 490.5,93.5 C 491.492,93.3284 492.158,93.6618 492.5,94.5C 415.476,105.24 338.143,109.907 260.5,108.5C 259.833,108.167 259.167,107.833 258.5,107.5C 258.5,107.167 258.5,106.833 258.5,106.5C 291.169,107.76 323.835,107.593 356.5,106C 401.247,102.644 445.914,98.4775 490.5,93.5 Z"/></g>
<g><path style="opacity:0.184" fill="#003d99" d="M 488.5,90.5 C 490.969,91.5686 493.302,92.9019 495.5,94.5C 495.833,94.5 496.167,94.5 496.5,94.5C 502.167,98.5 507.833,102.5 513.5,106.5C 506.039,103.271 499.039,99.2706 492.5,94.5C 492.158,93.6618 491.492,93.3284 490.5,93.5C 489.833,92.5 489.167,91.5 488.5,90.5 Z"/></g>
<g><path style="opacity:0.184" fill="#003c98" d="M 513.5,106.5 C 521.114,110.307 528.78,114.14 536.5,118C 528.051,115.775 520.384,111.942 513.5,106.5 Z"/></g>
<g><path style="opacity:0.169" fill="#003d99" d="M 562.5,129.5 C 554.865,127.519 547.532,124.685 540.5,121C 541.5,120.333 542.5,120.333 543.5,121C 549.977,123.76 556.31,126.593 562.5,129.5 Z"/></g>
<g><path style="opacity:0.118" fill="#004ec5" d="M 868.5,124.5 C 872.807,126.653 877.14,128.82 881.5,131C 912.498,131.5 943.498,131.667 974.5,131.5C 974.5,152.167 974.5,172.833 974.5,193.5C 972.513,192.836 970.846,191.669 969.5,190C 899.665,189.168 829.999,189.335 760.5,190.5C 759.292,189.766 757.959,189.433 756.5,189.5C 747.705,184.675 738.372,181.009 728.5,178.5C 718.851,174.337 708.851,170.837 698.5,168C 656.203,157.093 614.203,145.26 572.5,132.5C 673.999,131.667 775.666,131.167 877.5,131C 873.741,129.121 870.075,127.287 866.5,125.5C 867.492,125.672 868.158,125.338 868.5,124.5 Z"/></g>
<g><path style="opacity:0.153" fill="#003e9e" d="M 562.5,129.5 C 565.968,130.101 569.301,131.101 572.5,132.5C 614.203,145.26 656.203,157.093 698.5,168C 708.851,170.837 718.851,174.337 728.5,178.5C 688.407,166.559 648.073,155.393 607.5,145C 593.09,140.649 578.756,136.149 564.5,131.5C 563.833,130.833 563.167,130.167 562.5,129.5 Z"/></g>
<g><path style="opacity:0.118" fill="#004ec5" d="M 279.5,131.5 C 374.5,131.5 469.5,131.5 564.5,131.5C 578.756,136.149 593.09,140.649 607.5,145C 648.073,155.393 688.407,166.559 728.5,178.5C 736.916,181.972 745.25,185.639 753.5,189.5C 617.666,189.167 481.999,189.5 346.5,190.5C 321.421,174.096 299.087,154.429 279.5,131.5 Z"/></g>
<g><path style="opacity:0.192" fill="#003e9c" d="M 728.5,178.5 C 738.372,181.009 747.705,184.675 756.5,189.5C 755.5,189.5 754.5,189.5 753.5,189.5C 745.25,185.639 736.916,181.972 728.5,178.5 Z"/></g>
<g><path style="opacity:0.118" fill="#0050ca" d="M 346.5,190.5 C 481.999,189.5 617.666,189.167 753.5,189.5C 754.5,189.5 755.5,189.5 756.5,189.5C 759.077,191.79 762.077,192.956 765.5,193C 763.807,192.153 762.14,191.32 760.5,190.5C 829.999,189.335 899.665,189.168 969.5,190C 970.846,191.669 972.513,192.836 974.5,193.5C 974.5,213.5 974.5,233.5 974.5,253.5C 931.5,253.5 888.5,253.5 845.5,253.5C 838.173,244.173 829.839,235.839 820.5,228.5C 828.578,236.24 835.911,244.573 842.5,253.5C 732.332,253.167 622.332,253.501 512.5,254.5C 464.905,246.024 419.572,230.857 376.5,209C 366.305,203.073 356.305,196.906 346.5,190.5 Z"/></g>
<g><path style="opacity:0.165" fill="#003fa0" d="M 756.5,189.5 C 757.959,189.433 759.292,189.766 760.5,190.5C 762.14,191.32 763.807,192.153 765.5,193C 762.077,192.956 759.077,191.79 756.5,189.5 Z"/></g>
<g><path style="opacity:0.161" fill="#0040a1" d="M 786.5,204.5 C 783.91,203.872 781.577,202.705 779.5,201C 782.336,201.085 784.669,202.251 786.5,204.5 Z"/></g>
<g><path style="opacity:0.18" fill="#003e9d" d="M 786.5,204.5 C 788.674,204.75 790.341,205.75 791.5,207.5C 789.326,207.25 787.659,206.25 786.5,204.5 Z"/></g>
<g><path style="opacity:0.18" fill="#003e9d" d="M 791.5,207.5 C 793.674,207.75 795.341,208.75 796.5,210.5C 794.326,210.25 792.659,209.25 791.5,207.5 Z"/></g>
<g><path style="opacity:0.161" fill="#003f9e" d="M 796.5,210.5 C 798.027,210.427 799.027,211.094 799.5,212.5C 797.973,212.573 796.973,211.906 796.5,210.5 Z"/></g>
<g><path style="opacity:0.18" fill="#003f9e" d="M 799.5,212.5 C 807.408,216.623 814.408,221.956 820.5,228.5C 813.312,223.407 806.312,218.073 799.5,212.5 Z"/></g>
<g><path style="opacity:0.117" fill="#0052d0" d="M 512.5,254.5 C 622.332,253.501 732.332,253.167 842.5,253.5C 855.823,270.743 865.156,290.076 870.5,311.5C 842.5,311.5 814.5,311.5 786.5,311.5C 757.634,300.365 727.968,291.865 697.5,286C 635.789,275.637 574.122,265.137 512.5,254.5 Z"/></g>
<g><path style="opacity:0.118" fill="#0052d0" d="M 845.5,253.5 C 888.5,253.5 931.5,253.5 974.5,253.5C 974.5,272.833 974.5,292.167 974.5,311.5C 940.5,311.5 906.5,311.5 872.5,311.5C 866.752,290.67 857.752,271.337 845.5,253.5 Z"/></g>
<g><path style="opacity:0.176" fill="#003fa0" d="M 820.5,228.5 C 829.839,235.839 838.173,244.173 845.5,253.5C 857.752,271.337 866.752,290.67 872.5,311.5C 877.368,335.912 879.368,360.579 878.5,385.5C 878.5,390.167 878.5,394.833 878.5,399.5C 877.833,399.5 877.5,399.167 877.5,398.5C 877.5,390.833 877.5,383.167 877.5,375.5C 877.506,353.889 875.173,332.556 870.5,311.5C 865.156,290.076 855.823,270.743 842.5,253.5C 835.911,244.573 828.578,236.24 820.5,228.5 Z"/></g>
<g><path style="opacity:0.117" fill="#0054d5" d="M 786.5,311.5 C 814.5,311.5 842.5,311.5 870.5,311.5C 875.173,332.556 877.506,353.889 877.5,375.5C 870.087,374.872 863.087,375.539 856.5,377.5C 841.245,346.911 817.911,324.911 786.5,311.5 Z"/></g>
<g><path style="opacity:0.118" fill="#0055d6" d="M 872.5,311.5 C 906.5,311.5 940.5,311.5 974.5,311.5C 974.5,332.833 974.5,354.167 974.5,375.5C 942.833,375.5 911.167,375.5 879.5,375.5C 879.813,379.042 879.479,382.375 878.5,385.5C 879.368,360.579 877.368,335.912 872.5,311.5 Z"/></g>
<g><path style="opacity:0.984" fill="#3e8afe" d="M 929.5,334.5 C 939.616,334.431 942.616,338.931 938.5,348C 929.087,352.283 924.253,349.449 924,339.5C 925.352,337.251 927.185,335.584 929.5,334.5 Z"/></g>
<g><path style="opacity:0.118" fill="#0157d9" d="M 929.5,338.5 C 931.527,338.338 933.527,338.505 935.5,339C 938.192,341.632 937.859,343.966 934.5,346C 927.745,346.756 926.078,344.256 929.5,338.5 Z"/></g>
<g><path style="opacity:0.117" fill="#0056da" d="M 877.5,375.5 C 877.5,383.167 877.5,390.833 877.5,398.5C 876.224,409.663 875.224,420.996 874.5,432.5C 871.467,432.868 868.8,432.202 866.5,430.5C 865.987,412.271 862.654,394.605 856.5,377.5C 863.087,375.539 870.087,374.872 877.5,375.5 Z"/></g>
<g><path style="opacity:0.118" fill="#0056da" d="M 974.5,375.5 C 974.5,394.5 974.5,413.5 974.5,432.5C 941.833,432.5 909.167,432.5 876.5,432.5C 877.371,421.514 878.037,410.514 878.5,399.5C 878.5,394.833 878.5,390.167 878.5,385.5C 879.479,382.375 879.813,379.042 879.5,375.5C 911.167,375.5 942.833,375.5 974.5,375.5 Z"/></g>
<g><path style="opacity:0.117" fill="#0058df" d="M 866.5,430.5 C 868.8,432.202 871.467,432.868 874.5,432.5C 871.503,466.107 870.003,499.773 870,533.5C 871.393,570.084 876.56,606.084 885.5,641.5C 862.425,641.178 839.425,641.511 816.5,642.5C 818.029,628.994 820.529,615.661 824,602.5C 836.4,564.633 848.4,526.633 860,488.5C 864.606,469.438 866.773,450.105 866.5,430.5 Z"/></g>
<g><path style="opacity:0.118" fill="#0058df" d="M 876.5,432.5 C 909.167,432.5 941.833,432.5 974.5,432.5C 974.5,502.167 974.5,571.833 974.5,641.5C 945.167,641.5 915.833,641.5 886.5,641.5C 870.319,572.489 866.986,502.822 876.5,432.5 Z"/></g>
<g><path style="opacity:0.733" fill="#428dfe" d="M 257.5,500.5 C 261.839,499.846 265.673,500.846 269,503.5C 271.678,510.475 269.345,514.808 262,516.5C 255.298,515.803 252.298,512.136 253,505.5C 254.025,503.313 255.525,501.646 257.5,500.5 Z M 258.5,504.5 C 262.169,503.697 264.836,504.864 266.5,508C 263.167,514 259.833,514 256.5,508C 257.305,506.887 257.972,505.721 258.5,504.5 Z"/></g>
<g><path style="opacity:0.721" fill="#428dfe" d="M 619.5,525.5 C 626.732,523.611 631.399,526.111 633.5,533C 632.688,538.478 629.521,540.978 624,540.5C 616.741,540.344 614.074,536.677 616,529.5C 616.69,527.65 617.856,526.316 619.5,525.5 Z M 623.5,528.5 C 629.894,531.177 630.061,534.177 624,537.5C 618.213,534.679 618.046,531.679 623.5,528.5 Z"/></g>
<g><path style="opacity:0.198" fill="#0046b0" d="M 877.5,398.5 C 877.5,399.167 877.833,399.5 878.5,399.5C 878.037,410.514 877.371,421.514 876.5,432.5C 866.986,502.822 870.319,572.489 886.5,641.5C 888.966,649.028 890.966,656.695 892.5,664.5C 889.411,657.164 887.078,649.497 885.5,641.5C 876.56,606.084 871.393,570.084 870,533.5C 870.003,499.773 871.503,466.107 874.5,432.5C 875.224,420.996 876.224,409.663 877.5,398.5 Z"/></g>
<g><path style="opacity:0.118" fill="#0056da" d="M 885.5,641.5 C 887.078,649.497 889.411,657.164 892.5,664.5C 890.966,656.695 888.966,649.028 886.5,641.5C 915.833,641.5 945.167,641.5 974.5,641.5C 974.5,728.833 974.5,816.167 974.5,903.5C 973.833,903.5 973.167,903.5 972.5,903.5C 920.471,878.64 879.304,841.64 849,792.5C 822.133,746 811.3,696 816.5,642.5C 839.425,641.511 862.425,641.178 885.5,641.5 Z"/></g>
<g><path style="opacity:0.167" fill="#0046b1" d="M 892.5,664.5 C 894.61,668.502 895.943,672.835 896.5,677.5C 894.39,673.498 893.057,669.165 892.5,664.5 Z"/></g>
<g><path style="opacity:0.184" fill="#0048b5" d="M 896.5,677.5 C 898.074,679.102 898.741,681.102 898.5,683.5C 896.926,681.898 896.259,679.898 896.5,677.5 Z"/></g>
<g><path style="opacity:0.161" fill="#0048b4" d="M 898.5,683.5 C 900.601,686.797 901.935,690.463 902.5,694.5C 900.399,691.203 899.065,687.537 898.5,683.5 Z"/></g>
<g><path style="opacity:0.192" fill="#0046b1" d="M 902.5,694.5 C 904.267,696.792 905.267,699.458 905.5,702.5C 903.733,700.208 902.733,697.542 902.5,694.5 Z"/></g>
<g><path style="opacity:0.18" fill="#0047b3" d="M 905.5,702.5 C 908.266,707.117 910.266,712.117 911.5,717.5C 908.704,712.895 906.704,707.895 905.5,702.5 Z"/></g>
<g><path style="opacity:0.173" fill="#0048b4" d="M 911.5,717.5 C 913.293,719.426 914.293,721.759 914.5,724.5C 912.707,722.574 911.707,720.241 911.5,717.5 Z"/></g>
<g><path style="opacity:0.176" fill="#0047b4" d="M 914.5,724.5 C 916.293,726.426 917.293,728.759 917.5,731.5C 915.707,729.574 914.707,727.241 914.5,724.5 Z"/></g>
<g><path style="opacity:0.169" fill="#0048b7" d="M 917.5,731.5 C 920.449,735.394 922.282,739.727 923,744.5C 920.57,740.319 918.736,735.986 917.5,731.5 Z"/></g>
<g><path style="opacity:0.171" fill="#0049b7" d="M 929.5,756.5 C 932.415,759.663 934.248,763.33 935,767.5C 932.628,764.09 930.795,760.423 929.5,756.5 Z"/></g>
<g><path style="opacity:0.184" fill="#0049b8" d="M 937.5,771.5 C 939.749,773.331 940.915,775.664 941,778.5C 939.295,776.423 938.128,774.09 937.5,771.5 Z"/></g>
<g><path style="opacity:0.184" fill="#0049b8" d="M 947.5,788.5 C 950.125,790.603 951.625,793.27 952,796.5C 949.843,794.183 948.343,791.516 947.5,788.5 Z"/></g>
<g><path style="opacity:0.184" fill="#0049b9" d="M 959.5,807.5 C 960.885,808.574 962.051,809.907 963,811.5C 963.667,812.167 963.667,812.833 963,813.5C 961.053,811.937 959.886,809.937 959.5,807.5 Z"/></g>
</svg>
