<?xml version="1.0" encoding="UTF-8"?>
<!DOCTYPE svg PUBLIC "-//W3C//DTD SVG 1.1//EN" "http://www.w3.org/Graphics/SVG/1.1/DTD/svg11.dtd">
<svg xmlns="http://www.w3.org/2000/svg" version="1.1" width="975px" height="904px" style="shape-rendering:geometricPrecision; text-rendering:geometricPrecision; image-rendering:optimizeQuality; fill-rule:evenodd; clip-rule:evenodd" xmlns:xlink="http://www.w3.org/1999/xlink">
<g><path style="opacity:0.118" fill="#0b40fe" d="M 207.5,-0.5 C 272.833,-0.5 338.167,-0.5 403.5,-0.5C 418.868,24.5375 437.201,47.2042 458.5,67.5C 383.833,67.5 309.167,67.5 234.5,67.5C 222.381,46.158 213.381,23.4913 207.5,-0.5 Z"/></g>
<g><path style="opacity:0.118" fill="#0b40fe" d="M 405.5,-0.5 C 595.167,-0.5 784.833,-0.5 974.5,-0.5C 974.5,22.1667 974.5,44.8333 974.5,67.5C 803.666,67.167 632.999,67.5003 462.5,68.5C 440.133,48.1466 421.133,25.1466 405.5,-0.5 Z"/></g>
<g><path style="opacity:0.18" fill="#0138fd" d="M 403.5,-0.5 C 404.167,-0.5 404.833,-0.5 405.5,-0.5C 421.133,25.1466 440.133,48.1466 462.5,68.5C 472.901,77.8983 483.901,86.5649 495.5,94.5C 495.833,94.5 496.167,94.5 496.5,94.5C 502.167,98.5 507.833,102.5 513.5,106.5C 493.615,95.721 475.282,82.721 458.5,67.5C 437.201,47.2042 418.868,24.5375 403.5,-0.5 Z"/></g>
<g><path style="opacity:0.118" fill="#0f42fe" d="M 234.5,67.5 C 309.167,67.5 383.833,67.5 458.5,67.5C 475.282,82.721 493.615,95.721 513.5,106.5C 521.749,112.459 530.749,117.126 540.5,120.5C 558.829,129.115 577.829,136.281 597.5,142C 641.407,153.393 685.074,165.56 728.5,178.5C 736.916,181.972 745.25,185.639 753.5,189.5C 617.999,189.167 482.666,189.5 347.5,190.5C 313.4,168.738 284.4,141.405 260.5,108.5C 260.19,106.856 259.19,105.856 257.5,105.5C 248.817,93.4706 241.15,80.8039 234.5,67.5 Z"/></g>
<g><path style="opacity:0.118" fill="#0e42fe" d="M 974.5,67.5 C 974.5,109.5 974.5,151.5 974.5,193.5C 972.388,192.56 970.388,191.394 968.5,190C 899.167,189.333 829.833,189.333 760.5,190C 763.339,191.92 766.339,193.587 769.5,195C 769,195.167 768.5,195.333 768,195.5C 763.306,193.067 758.473,191.067 753.5,189.5C 745.25,185.639 736.916,181.972 728.5,178.5C 718.851,174.337 708.851,170.837 698.5,168C 665.167,159 631.833,150 598.5,141C 578.867,134.846 559.533,128.012 540.5,120.5C 531.829,115.477 522.829,110.811 513.5,106.5C 507.833,102.5 502.167,98.5 496.5,94.5C 563.225,85.6989 629.725,82.3656 696,84.5C 718.01,86.2813 739.676,88.948 761,92.5C 762.167,92.3333 763.333,92.1667 764.5,92C 737.509,87.39 710.676,84.2233 684,82.5C 662,82.5 640,82.5 618,82.5C 579.753,84.8512 540.753,88.1845 501,92.5C 498.705,92.5465 496.871,93.2132 495.5,94.5C 483.901,86.5649 472.901,77.8983 462.5,68.5C 632.999,67.5003 803.666,67.167 974.5,67.5 Z"/></g>
<g><path style="opacity:0.065" fill="#1849fe" d="M -0.5,-0.5 C 0.166667,-0.5 0.833333,-0.5 1.5,-0.5C 22.1725,24.3431 46.8391,44.1764 75.5,59C 132.826,87.3318 193.493,102.832 257.5,105.5C 259.19,105.856 260.19,106.856 260.5,108.5C 207.873,105.408 156.873,94.5745 107.5,76C 65.3712,59.7914 29.3712,34.9581 -0.5,1.5C -0.5,0.833333 -0.5,0.166667 -0.5,-0.5 Z"/></g>
<g><path style="opacity:0.184" fill="#1245fe" d="M 496.5,94.5 C 496.167,94.5 495.833,94.5 495.5,94.5C 496.871,93.2132 498.705,92.5465 501,92.5C 540.753,88.1845 579.753,84.8512 618,82.5C 640,82.5 662,82.5 684,82.5C 710.676,84.2233 737.509,87.39 764.5,92C 763.333,92.1667 762.167,92.3333 761,92.5C 739.676,88.948 718.01,86.2813 696,84.5C 629.725,82.3656 563.225,85.6989 496.5,94.5 Z"/></g>
<g><path style="opacity:0.986" fill="#3762fe" d="M 828.5,89.5 C 837.157,87.679 841.323,91.0124 841,99.5C 838.459,104.069 834.625,105.569 829.5,104C 824.857,101.928 823.357,98.4276 825,93.5C 825.69,91.6498 826.856,90.3164 828.5,89.5 Z"/></g>
<g><path style="opacity:0.118" fill="#0f42ff" d="M 830.5,92.5 C 837.068,92.1918 838.734,94.6918 835.5,100C 828.369,101.211 826.702,98.7112 830.5,92.5 Z"/></g>
<g><path style="opacity:0.186" fill="#0138fe" d="M 513.5,106.5 C 522.829,110.811 531.829,115.477 540.5,120.5C 530.749,117.126 521.749,112.459 513.5,106.5 Z"/></g>
<g><path style="opacity:0.157" fill="#0239fe" d="M 540.5,120.5 C 559.533,128.012 578.867,134.846 598.5,141C 631.833,150 665.167,159 698.5,168C 708.851,170.837 718.851,174.337 728.5,178.5C 685.074,165.56 641.407,153.393 597.5,142C 577.829,136.281 558.829,129.115 540.5,120.5 Z"/></g>
<g><path style="opacity:0.118" fill="#1144fe" d="M 753.5,189.5 C 758.473,191.067 763.306,193.067 768,195.5C 768.5,195.333 769,195.167 769.5,195C 766.339,193.587 763.339,191.92 760.5,190C 829.833,189.333 899.167,189.333 968.5,190C 970.388,191.394 972.388,192.56 974.5,193.5C 974.5,213.5 974.5,233.5 974.5,253.5C 931.5,253.5 888.5,253.5 845.5,253.5C 838.25,244.581 830.25,236.247 821.5,228.5C 825.455,233.989 830.289,239.323 836,244.5C 838.385,247.379 840.552,250.379 842.5,253.5C 732.332,253.167 622.332,253.501 512.5,254.5C 454.134,244.328 399.801,223.828 349.5,193C 348.619,192.292 347.953,191.458 347.5,190.5C 482.666,189.5 617.999,189.167 753.5,189.5 Z"/></g>
<g><path style="opacity:0.18" fill="#0239fe" d="M 791.5,208.5 C 792.721,207.535 794.054,207.702 795.5,209C 802.115,213.281 808.448,217.947 814.5,223C 813.833,223.667 813.167,223.667 812.5,223C 805.819,217.663 798.819,212.83 791.5,208.5 Z"/></g>
<g><path style="opacity:0.117" fill="#1346fe" d="M 512.5,254.5 C 622.332,253.501 732.332,253.167 842.5,253.5C 858.321,274.164 868.488,297.497 873,323.5C 878.102,358.381 878.935,393.381 875.5,428.5C 874.566,429.568 874.232,430.901 874.5,432.5C 871.721,432.279 869.054,432.612 866.5,433.5C 866.537,380.768 843.537,341.935 797.5,317C 769.968,304.282 741.302,294.948 711.5,289C 696.21,285.785 680.877,282.785 665.5,280C 614.334,272.361 563.334,263.861 512.5,254.5 Z"/></g>
<g><path style="opacity:0.118" fill="#1447fe" d="M 845.5,253.5 C 888.5,253.5 931.5,253.5 974.5,253.5C 974.5,313.167 974.5,372.833 974.5,432.5C 941.833,432.5 909.167,432.5 876.5,432.5C 878.327,404.861 878.827,377.194 878,349.5C 875.912,314.372 865.079,282.372 845.5,253.5 Z"/></g>
<g><path style="opacity:0.984" fill="#3762fe" d="M 928.5,334.5 C 935.254,333.372 939.587,336.038 941.5,342.5C 937.061,351.736 931.227,352.736 924,345.5C 922.776,340.626 924.276,336.959 928.5,334.5 Z"/></g>
<g><path style="opacity:0.118" fill="#1548ff" d="M 929.5,338.5 C 936.536,337.603 938.203,340.103 934.5,346C 927.686,346.704 926.019,344.204 929.5,338.5 Z"/></g>
<g><path style="opacity:0.182" fill="#0339fe" d="M 845.5,253.5 C 865.079,282.372 875.912,314.372 878,349.5C 878.827,377.194 878.327,404.861 876.5,432.5C 875.566,431.432 875.232,430.099 875.5,428.5C 878.935,393.381 878.102,358.381 873,323.5C 868.488,297.497 858.321,274.164 842.5,253.5C 840.552,250.379 838.385,247.379 836,244.5C 830.289,239.323 825.455,233.989 821.5,228.5C 830.25,236.247 838.25,244.581 845.5,253.5 Z"/></g>
<g><path style="opacity:0.117" fill="#1849fe" d="M 874.5,432.5 C 872.169,461.123 870.503,489.79 869.5,518.5C 870.001,560.175 875.334,601.175 885.5,641.5C 862.425,641.822 839.425,641.489 816.5,640.5C 818.991,622.881 822.824,605.548 828,588.5C 839.47,555.424 850.136,522.091 860,488.5C 864.384,470.425 866.551,452.092 866.5,433.5C 869.054,432.612 871.721,432.279 874.5,432.5 Z"/></g>
<g><path style="opacity:0.118" fill="#1849fe" d="M 876.5,432.5 C 909.167,432.5 941.833,432.5 974.5,432.5C 974.5,502.167 974.5,571.833 974.5,641.5C 945.093,641.825 915.76,641.491 886.5,640.5C 874.606,592.557 869.772,543.891 872,494.5C 873.169,473.801 874.669,453.135 876.5,432.5 Z"/></g>
<g><path style="opacity:0.733" fill="#3a64fe" d="M 257.5,500.5 C 261.839,499.846 265.673,500.846 269,503.5C 271.678,510.475 269.345,514.808 262,516.5C 255.298,515.803 252.298,512.136 253,505.5C 254.025,503.313 255.525,501.646 257.5,500.5 Z M 258.5,504.5 C 262.169,503.697 264.836,504.864 266.5,508C 263.167,514 259.833,514 256.5,508C 257.305,506.887 257.972,505.721 258.5,504.5 Z"/></g>
<g><path style="opacity:0.177" fill="#083dfe" d="M 875.5,428.5 C 875.232,430.099 875.566,431.432 876.5,432.5C 874.669,453.135 873.169,473.801 872,494.5C 869.772,543.891 874.606,592.557 886.5,640.5C 890,652.819 893.167,665.152 896,677.5C 891.875,665.663 888.375,653.663 885.5,641.5C 875.334,601.175 870.001,560.175 869.5,518.5C 870.503,489.79 872.169,461.123 874.5,432.5C 874.232,430.901 874.566,429.568 875.5,428.5 Z"/></g>
<g><path style="opacity:0.721" fill="#3a64fe" d="M 619.5,525.5 C 626.732,523.611 631.399,526.111 633.5,533C 632.688,538.478 629.521,540.978 624,540.5C 616.741,540.344 614.074,536.677 616,529.5C 616.69,527.65 617.856,526.316 619.5,525.5 Z M 623.5,528.5 C 629.894,531.177 630.061,534.177 624,537.5C 618.213,534.679 618.046,531.679 623.5,528.5 Z"/></g>
<g><path style="opacity:0.117" fill="#1648fe" d="M 816.5,640.5 C 839.425,641.489 862.425,641.822 885.5,641.5C 888.375,653.663 891.875,665.663 896,677.5C 893.167,665.152 890,652.819 886.5,640.5C 915.76,641.491 945.093,641.825 974.5,641.5C 974.5,728.833 974.5,816.167 974.5,903.5C 973.833,903.5 973.167,903.5 972.5,903.5C 920.471,878.64 879.304,841.64 849,792.5C 821.871,745.358 811.038,694.692 816.5,640.5 Z"/></g>
<g><path style="opacity:0.161" fill="#0a3ffe" d="M 898.5,683.5 C 902.738,693.694 906.905,704.027 911,714.5C 911.667,715.5 911.667,716.5 911,717.5C 905.937,706.477 901.771,695.144 898.5,683.5 Z"/></g>
<g><path style="opacity:0.176" fill="#0b3ffe" d="M 918.5,733.5 C 925.162,745.155 930.995,757.155 936,769.5C 929.349,757.865 923.516,745.865 918.5,733.5 Z"/></g>
</svg>
