<?xml version="1.0" encoding="UTF-8"?>
<!DOCTYPE svg PUBLIC "-//W3C//DTD SVG 1.1//EN" "http://www.w3.org/Graphics/SVG/1.1/DTD/svg11.dtd">
<svg xmlns="http://www.w3.org/2000/svg" version="1.1" width="554px" height="373px" style="shape-rendering:geometricPrecision; text-rendering:geometricPrecision; image-rendering:optimizeQuality; fill-rule:evenodd; clip-rule:evenodd" xmlns:xlink="http://www.w3.org/1999/xlink">
<g><path style="opacity:1" fill="#243675" d="M 35.5,220.5 C 27.3501,219.507 19.0168,219.174 10.5,219.5C 10.7084,216.211 10.0418,212.877 8.5,209.5C 8.50613,194.62 8.50613,179.786 8.5,165C 9.02571,157.076 11.6924,150.076 16.5,144C 19.2063,142.452 22.0397,141.286 25,140.5C 29.3814,129.241 35.2147,118.741 42.5,109C 33.4387,106.07 24.1054,104.07 14.5,103C 14.0426,102.586 13.7093,102.086 13.5,101.5C 34.1364,75.8578 54.8031,50.1911 75.5,24.5C 79.8288,23.6398 83.9955,23.3064 88,23.5C 117.703,29.8127 147.203,35.8127 176.5,41.5C 171.049,50.8073 164.549,59.474 157,67.5C 158.07,71.3958 158.737,75.3958 159,79.5C 123.518,74.3304 92.3518,83.497 65.5,107C 60.7511,111.078 56.7511,115.745 53.5,121C 52.365,121.749 51.365,121.583 50.5,120.5C 49.5682,118.205 48.7348,115.871 48,113.5C 41.5956,123.14 36.0956,133.306 31.5,144C 35.4196,146.416 37.4196,149.916 37.5,154.5C 30.9293,176.018 30.9293,197.518 37.5,219C 37.1639,220.03 36.4972,220.53 35.5,220.5 Z"/></g>
<g><path style="opacity:1" fill="#feba29" d="M 130.5,79.5 C 163.904,76.0498 192.404,87.0498 216,112.5C 220.02,117.177 223.187,122.344 225.5,128C 225.167,128.833 224.833,129.667 224.5,130.5C 212.708,136.229 201.041,142.229 189.5,148.5C 173.666,123.29 151.499,114.29 123,121.5C 100.012,130.457 86.8452,146.957 83.5,171C 78.7069,195.142 85.3735,216.142 103.5,234C 126.21,250.576 149.543,251.576 173.5,237C 179.826,231.52 185.159,225.354 189.5,218.5C 202.102,223.8 214.102,230.133 225.5,237.5C 213.273,261.883 193.94,277.716 167.5,285C 120.554,294.353 82.3877,280.186 53,242.5C 33.4052,209.205 30.7385,174.538 45,138.5C 63,103.895 91.5,84.2283 130.5,79.5 Z"/></g>
<g><path style="opacity:0.928" fill="#233574" d="M 217.5,160.5 C 235.539,158.545 245.539,166.545 247.5,184.5C 244.544,203.605 233.544,211.105 214.5,207C 204.356,202.564 199.356,194.731 199.5,183.5C 200.386,171.635 206.386,163.968 217.5,160.5 Z M 220.5,171.5 C 229.103,171.436 233.436,175.769 233.5,184.5C 233.284,191.644 229.784,195.978 223,197.5C 216.435,195.718 213.268,191.385 213.5,184.5C 213.515,178.798 215.848,174.464 220.5,171.5 Z"/></g>
<g><path style="opacity:0.948" fill="#233574" d="M 328.5,160.5 C 332.96,159.885 336.96,160.885 340.5,163.5C 339.26,167.056 337.927,170.556 336.5,174C 334.51,173.862 332.51,173.362 330.5,172.5C 327.832,172.745 325.998,174.079 325,176.5C 323.63,186.777 323.13,197.111 323.5,207.5C 319.167,207.5 314.833,207.5 310.5,207.5C 310.5,192.167 310.5,176.833 310.5,161.5C 314.5,161.5 318.5,161.5 322.5,161.5C 322.351,162.552 322.517,163.552 323,164.5C 324.5,162.531 326.333,161.198 328.5,160.5 Z"/></g>
<g><path style="opacity:0.914" fill="#233574" d="M 355.5,160.5 C 362.692,159.945 369.692,160.778 376.5,163C 387.225,172.706 385.225,176.706 370.5,175C 368.768,171.549 365.934,170.049 362,170.5C 359.077,170.045 356.91,171.045 355.5,173.5C 356.665,174.584 357.998,175.417 359.5,176C 365.589,177.355 371.589,179.022 377.5,181C 384.435,185.509 386.268,191.676 383,199.5C 378.281,206.032 371.781,209.032 363.5,208.5C 352.804,208.833 345.47,204.166 341.5,194.5C 341.833,194.167 342.167,193.833 342.5,193.5C 346.788,192.589 351.121,191.922 355.5,191.5C 357.208,197.526 361.208,199.693 367.5,198C 370.894,196.435 371.228,194.435 368.5,192C 361.216,190.461 354.216,188.127 347.5,185C 340.061,173.384 342.727,165.218 355.5,160.5 Z"/></g>
<g><path style="opacity:0.919" fill="#233574" d="M 408.5,160.5 C 427.565,159.901 436.565,169.234 435.5,188.5C 425.833,188.5 416.167,188.5 406.5,188.5C 406.802,195.632 410.469,198.465 417.5,197C 419.607,195.736 420.607,193.903 420.5,191.5C 425.132,192.383 429.798,193.05 434.5,193.5C 432.647,201.519 427.647,206.352 419.5,208C 398.573,208.746 389.74,198.579 393,177.5C 395.292,169.048 400.459,163.381 408.5,160.5 Z M 410.5,171.5 C 416.975,170.23 420.975,172.73 422.5,179C 417.177,179.499 411.844,179.666 406.5,179.5C 406.776,176.281 408.109,173.615 410.5,171.5 Z"/></g>
<g><path style="opacity:0.908" fill="#233574" d="M 256.5,161.5 C 261.167,161.5 265.833,161.5 270.5,161.5C 270.333,172.505 270.5,183.505 271,194.5C 276.044,198.826 280.378,198.16 284,192.5C 284.5,182.172 284.666,171.839 284.5,161.5C 289.167,161.5 293.833,161.5 298.5,161.5C 298.5,176.833 298.5,192.167 298.5,207.5C 294.167,207.5 289.833,207.5 285.5,207.5C 285.657,206.127 285.49,204.793 285,203.5C 276.596,210.089 268.263,210.089 260,203.5C 258.438,201.043 257.438,198.376 257,195.5C 256.5,184.172 256.333,172.838 256.5,161.5 Z"/></g>
<g><path style="opacity:0.438" fill="#a6b4cd" d="M 10.5,219.5 C 19.0168,219.174 27.3501,219.507 35.5,220.5C 28.3475,221.44 21.0142,221.774 13.5,221.5C 12.2613,221.058 11.2613,220.391 10.5,219.5 Z"/></g>
<g><path style="opacity:0.937" fill="#233574" d="M 260.5,221.5 C 267.2,221.17 273.866,221.503 280.5,222.5C 283.846,234.884 287.346,247.217 291,259.5C 294.484,246.899 297.65,234.232 300.5,221.5C 307.167,221.5 313.833,221.5 320.5,221.5C 320.5,242.5 320.5,263.5 320.5,284.5C 316.167,284.5 311.833,284.5 307.5,284.5C 307.667,271.496 307.5,258.496 307,245.5C 304.157,257.87 301.157,270.204 298,282.5C 295.959,283.752 293.625,284.419 291,284.5C 288.576,284.47 286.243,284.137 284,283.5C 280.667,270.167 277.333,256.833 274,243.5C 273.5,257.163 273.333,270.829 273.5,284.5C 269.167,284.5 264.833,284.5 260.5,284.5C 260.5,263.5 260.5,242.5 260.5,221.5 Z"/></g>
<g><path style="opacity:0.91" fill="#233574" d="M 445.5,223.5 C 446.5,223.5 447.5,223.5 448.5,223.5C 448.5,228.5 448.5,233.5 448.5,238.5C 451.167,238.5 453.833,238.5 456.5,238.5C 456.5,242.167 456.5,245.833 456.5,249.5C 453.833,249.5 451.167,249.5 448.5,249.5C 448.5,257.5 448.5,265.5 448.5,273.5C 450.792,273.756 452.959,273.423 455,272.5C 456.72,276.294 456.886,280.127 455.5,284C 448.809,286.56 442.642,285.727 437,281.5C 436.138,279.913 435.471,278.246 435,276.5C 434.5,267.506 434.334,258.506 434.5,249.5C 432.833,249.5 431.167,249.5 429.5,249.5C 429.5,245.833 429.5,242.167 429.5,238.5C 431.167,238.5 432.833,238.5 434.5,238.5C 434.183,235.428 434.516,232.428 435.5,229.5C 439.135,227.835 442.469,225.835 445.5,223.5 Z"/></g>
<g><path style="opacity:0.913" fill="#233574" d="M 344.5,237.5 C 350.909,237.183 357.243,237.683 363.5,239C 366.171,240.25 368.337,242.083 370,244.5C 370.857,257.895 372.023,271.228 373.5,284.5C 369.116,284.826 364.783,284.492 360.5,283.5C 360,282.5 359.5,281.5 359,280.5C 349.352,287.75 340.352,287.083 332,278.5C 328.126,268.759 330.96,261.926 340.5,258C 346.141,256.639 351.808,255.472 357.5,254.5C 357.822,252.278 357.155,250.444 355.5,249C 352.5,248.333 349.5,248.333 346.5,249C 345.767,251.325 344.267,252.825 342,253.5C 338.436,252.921 334.936,252.087 331.5,251C 333.35,243.986 337.683,239.486 344.5,237.5 Z M 354.5,263.5 C 355.5,263.5 356.5,263.5 357.5,263.5C 358.802,270.244 356.136,274.244 349.5,275.5C 345.233,274.398 343.733,271.731 345,267.5C 348.139,265.85 351.306,264.517 354.5,263.5 Z"/></g>
<g><path style="opacity:0.914" fill="#233574" d="M 393.5,237.5 C 400.692,236.945 407.692,237.778 414.5,240C 425.225,249.706 423.225,253.706 408.5,252C 406.768,248.549 403.934,247.049 400,247.5C 397.077,247.045 394.91,248.045 393.5,250.5C 394.665,251.584 395.998,252.417 397.5,253C 403.589,254.355 409.589,256.022 415.5,258C 422.435,262.509 424.268,268.676 421,276.5C 416.281,283.032 409.781,286.032 401.5,285.5C 390.804,285.833 383.47,281.166 379.5,271.5C 379.833,271.167 380.167,270.833 380.5,270.5C 384.788,269.589 389.121,268.922 393.5,268.5C 395.208,274.526 399.208,276.693 405.5,275C 408.894,273.435 409.228,271.435 406.5,269C 399.216,267.461 392.216,265.127 385.5,262C 378.061,250.384 380.727,242.218 393.5,237.5 Z"/></g>
<g><path style="opacity:0.919" fill="#233574" d="M 477.5,237.5 C 496.565,236.901 505.565,246.234 504.5,265.5C 494.833,265.5 485.167,265.5 475.5,265.5C 475.802,272.632 479.469,275.465 486.5,274C 488.607,272.736 489.607,270.903 489.5,268.5C 494.132,269.383 498.798,270.05 503.5,270.5C 501.647,278.519 496.647,283.352 488.5,285C 467.573,285.746 458.74,275.579 462,254.5C 464.292,246.048 469.459,240.381 477.5,237.5 Z M 479.5,248.5 C 485.975,247.23 489.975,249.73 491.5,256C 486.177,256.499 480.844,256.666 475.5,256.5C 475.776,253.281 477.109,250.615 479.5,248.5 Z"/></g>
<g><path style="opacity:0.948" fill="#233574" d="M 532.5,237.5 C 536.96,236.885 540.96,237.885 544.5,240.5C 543.26,244.056 541.927,247.556 540.5,251C 538.51,250.862 536.51,250.362 534.5,249.5C 531.832,249.745 529.998,251.079 529,253.5C 527.63,263.777 527.13,274.111 527.5,284.5C 523.167,284.5 518.833,284.5 514.5,284.5C 514.5,269.167 514.5,253.833 514.5,238.5C 518.5,238.5 522.5,238.5 526.5,238.5C 526.351,239.552 526.517,240.552 527,241.5C 528.5,239.531 530.333,238.198 532.5,237.5 Z"/></g>
</svg>
